<svg width="1919" height="545" viewBox="0 0 1919 545" fill="none" xmlns="http://www.w3.org/2000/svg">
<mask id="mask0" mask-type="alpha" maskUnits="userSpaceOnUse" x="0" y="0" width="1920" height="545">
<path d="M0 0H1920V545H0V0Z" fill="#FF942A"/>
</mask>
<g mask="url(#mask0)">
<g filter="url(#filter0_f)">
<ellipse cx="36.5" cy="-95" rx="229.5" ry="292" fill="#FFD747"/>
</g>
<g filter="url(#filter1_f)">
<ellipse cx="1918.5" cy="354" rx="229.5" ry="292" fill="#FFD747"/>
</g>
<path d="M390.273 515H455L307.727 747H243L390.273 515Z" fill="#FFD747"/>
<path d="M592.273 -163H657L509.727 69H445L592.273 -163Z" fill="#FFD747"/>
<path d="M1790.3 411H1849L1732.7 593H1674L1790.3 411Z" fill="#FF942A"/>
<path d="M112.657 238H121L-93.6569 574H-102L112.657 238Z" fill="#FFAF61"/>
<path d="M1888.66 -112H1897L1682.34 224H1674L1888.66 -112Z" fill="#FFD747"/>
<path d="M183.129 49H172L303.871 255H315L183.129 49Z" fill="white"/>
<path opacity="0.9" d="M1633.66 164H1642L1427.34 500H1419L1633.66 164Z" fill="white"/>
</g>
<defs>
<filter id="filter0_f" x="-443" y="-637" width="959" height="1084" filterUnits="userSpaceOnUse" color-interpolation-filters="sRGB">
<feFlood flood-opacity="0" result="BackgroundImageFix"/>
<feBlend mode="normal" in="SourceGraphic" in2="BackgroundImageFix" result="shape"/>
<feGaussianBlur stdDeviation="125" result="effect1_foregroundBlur"/>
</filter>
<filter id="filter1_f" x="1439" y="-188" width="959" height="1084" filterUnits="userSpaceOnUse" color-interpolation-filters="sRGB">
<feFlood flood-opacity="0" result="BackgroundImageFix"/>
<feBlend mode="normal" in="SourceGraphic" in2="BackgroundImageFix" result="shape"/>
<feGaussianBlur stdDeviation="125" result="effect1_foregroundBlur"/>
</filter>
</defs>
</svg>
