<svg width="22" height="22" viewBox="0 0 22 22" fill="none" xmlns="http://www.w3.org/2000/svg">
<path d="M12.2734 5C12.5964 5 12.8672 5.11198 13.0859 5.33594C13.3099 5.5599 13.4219 5.83073 13.4219 6.14844C13.4219 6.46615 13.3099 6.73698 13.0859 6.96094C12.862 7.1849 12.5911 7.29688 12.2734 7.29688C11.9609 7.29688 11.6927 7.1849 11.4688 6.96094C11.2448 6.73698 11.1328 6.46615 11.1328 6.14844C11.1328 5.83073 11.2422 5.5599 11.4609 5.33594C11.6849 5.11198 11.9557 5 12.2734 5ZM12.7578 8.59375L11.1562 14.1484C11.0677 14.4661 11.0234 14.6745 11.0234 14.7734C11.0234 14.8307 11.0469 14.8854 11.0938 14.9375C11.1406 14.9844 11.1901 15.0078 11.2422 15.0078C11.3307 15.0078 11.4193 14.9688 11.5078 14.8906C11.7422 14.6979 12.0234 14.349 12.3516 13.8438L12.6172 14C11.8307 15.3698 10.9948 16.0547 10.1094 16.0547C9.77083 16.0547 9.5 15.9609 9.29688 15.7734C9.09896 15.5807 9 15.3385 9 15.0469C9 14.8542 9.04427 14.6094 9.13281 14.3125L10.2188 10.5781C10.3229 10.2188 10.375 9.94792 10.375 9.76562C10.375 9.65104 10.3255 9.54948 10.2266 9.46094C10.1276 9.3724 9.99219 9.32812 9.82031 9.32812C9.74219 9.32812 9.64844 9.33073 9.53906 9.33594L9.64062 9.02344L12.2891 8.59375H12.7578Z" fill="black"/>
<path d="M11 22C4.9 22 0 17.1 0 11C0 4.9 4.9 0 11 0C17.1 0 22 4.9 22 11C22 17.1 17.1 22 11 22ZM11 2C6 2 2 6 2 11C2 16 6 20 11 20C16 20 20 16 20 11C20 6 16 2 11 2Z" fill="black"/>
</svg>
