<svg width="226" height="44" viewBox="0 0 226 44" fill="none" xmlns="http://www.w3.org/2000/svg">
<path d="M55.7777 18.3812V21.3429H60.2687C62.1622 21.3429 63.6268 21.8203 64.6626 22.7752C65.7146 23.7138 66.2406 24.9924 66.2406 26.6108C66.2406 28.3263 65.6822 29.6533 64.5655 30.592C63.4488 31.5307 61.8952 32 59.9046 32H52.0392V15.0069H65.0753V18.3812H55.7777ZM59.8803 24.4502H55.7777V28.6257H59.9046C61.6362 28.6257 62.5021 27.9055 62.5021 26.4651C62.5021 25.1218 61.6281 24.4502 59.8803 24.4502ZM69.3215 32V15.0069H73.06V20.7846H76.6771C78.6192 20.7846 80.1404 21.2863 81.2409 22.2897C82.3415 23.2769 82.8917 24.612 82.8917 26.2952C82.8917 28.043 82.3091 29.4349 81.1438 30.4706C79.9948 31.4902 78.4249 32 76.4343 32H69.3215ZM76.3615 23.989H73.06V28.6257H76.3858C78.2469 28.6257 79.1775 27.8326 79.1775 26.2466C79.1775 24.7415 78.2388 23.989 76.3615 23.989ZM84.7852 32V15.0069H88.5237V32H84.7852ZM100.564 32.2913C98.0718 32.2913 95.9922 31.4497 94.3253 29.7666C92.6745 28.0673 91.8491 25.9796 91.8491 23.5034C91.8491 21.0435 92.6826 18.9639 94.3495 17.2646C96.0165 15.5652 98.1366 14.7156 100.71 14.7156C102.183 14.7156 103.421 14.9583 104.424 15.4439C105.427 15.9132 106.382 16.5929 107.289 17.483L105.055 20.0563C104.327 19.3927 103.639 18.9153 102.992 18.624C102.361 18.3165 101.592 18.1628 100.686 18.1628C99.2613 18.1628 98.0799 18.6806 97.1413 19.7164C96.2188 20.736 95.7575 21.9983 95.7575 23.5034C95.7575 24.9924 96.2188 26.2547 97.1413 27.2905C98.0799 28.3263 99.2613 28.8441 100.686 28.8441C101.592 28.8441 102.377 28.6823 103.04 28.3586C103.704 28.0349 104.408 27.5332 105.152 26.8535L107.531 29.4025C106.609 30.3897 105.605 31.118 104.521 31.5873C103.453 32.0566 102.134 32.2913 100.564 32.2913ZM114.481 32V18.4541H109.31V15.0069H123.39V18.4541H118.22V32H114.481ZM126.265 32V15.0069H133.208C135.215 15.0069 136.801 15.5491 137.966 16.6334C139.132 17.7177 139.714 19.15 139.714 20.9302C139.714 22.8237 139.067 24.2965 137.772 25.3484C136.478 26.3842 134.835 26.9021 132.844 26.9021H130.004V32H126.265ZM130.004 23.5763H132.966C133.888 23.5763 134.608 23.3335 135.126 22.848C135.66 22.3625 135.927 21.7313 135.927 20.9545C135.927 20.1291 135.66 19.4979 135.126 19.061C134.592 18.6078 133.848 18.3812 132.893 18.3812H130.004V23.5763ZM157.192 29.7423C155.477 31.4417 153.324 32.2913 150.735 32.2913C148.145 32.2913 145.993 31.4417 144.277 29.7423C142.578 28.043 141.728 25.9634 141.728 23.5034C141.728 21.0597 142.586 18.9881 144.302 17.2888C146.033 15.5733 148.194 14.7156 150.783 14.7156C153.373 14.7156 155.517 15.5652 157.216 17.2646C158.932 18.9639 159.79 21.0435 159.79 23.5034C159.79 25.9472 158.924 28.0269 157.192 29.7423ZM147.093 27.2905C148.064 28.3263 149.294 28.8441 150.783 28.8441C152.272 28.8441 153.494 28.3343 154.449 27.3148C155.404 26.279 155.881 25.0086 155.881 23.5034C155.881 22.0145 155.396 20.7522 154.425 19.7164C153.454 18.6806 152.224 18.1628 150.735 18.1628C149.246 18.1628 148.024 18.6806 147.069 19.7164C146.114 20.736 145.637 21.9983 145.637 23.5034C145.637 24.9924 146.122 26.2547 147.093 27.2905Z" fill="#3E3E3E"/>
<path d="M163.106 32V15.0069H166.844V22.4353L173.739 15.0069H178.254L171.335 22.2168L178.57 32H174.079L168.811 24.7658L166.844 26.805V32H163.106ZM184.334 24.9843V21.877H191.277C190.97 20.7441 190.379 19.8297 189.505 19.1338C188.631 18.4217 187.62 18.0657 186.471 18.0657C184.852 18.0657 183.372 18.6645 182.028 19.8621L179.965 17.2888C181.794 15.5733 183.954 14.7156 186.446 14.7156C189.02 14.7156 191.14 15.5652 192.807 17.2646C194.474 18.9639 195.307 21.0435 195.307 23.5034C195.307 25.9796 194.474 28.0673 192.807 29.7666C191.156 31.4497 189.084 32.2913 186.592 32.2913C185.006 32.2913 183.655 32.0566 182.538 31.5873C181.421 31.118 180.41 30.3978 179.504 29.4268L181.81 26.9263C182.554 27.6061 183.283 28.1159 183.995 28.4557C184.707 28.7794 185.532 28.9412 186.471 28.9412C187.668 28.9412 188.696 28.5771 189.554 27.8488C190.428 27.1044 191.01 26.1495 191.302 24.9843H184.334ZM221.972 15.0069V32H198.643V15.0069H202.381V28.6257H208.426V15.0069H212.164V28.6257H218.233V15.0069H221.972Z" fill="#22E057"/>
<g clip-path="url(#clip0)">
<path d="M36.1894 3.68703L41.8712 20.2415C42.2938 21.474 41.6428 22.8048 40.4104 23.2275L9.63501 33.7904C8.40258 34.213 7.07171 33.5634 6.64908 32.3309L0.967292 15.7751C0.543356 14.5427 1.19435 13.2118 2.42679 12.7892L33.2022 2.22623C34.4346 1.8036 35.7655 2.45329 36.1894 3.68703Z" fill="#21CA50"/>
<path d="M8.63621 27.3684L5.58203 18.471C7.10059 17.95 7.90909 16.2962 7.38802 14.7777L30.5063 6.84363C31.0274 8.36218 32.6811 9.17068 34.1997 8.64962L37.2538 17.547C35.7353 18.0681 34.9268 19.7218 35.4479 21.2404L12.3309 29.1744C11.8098 27.6559 10.1561 26.846 8.63621 27.3684Z" fill="#23BA4D"/>
<path d="M25.2686 16.6859C24.3228 13.93 21.8315 12.2878 19.7043 13.0178C17.577 13.7479 16.6192 16.5739 17.5651 19.3298C18.5109 22.0857 21.0022 23.728 23.1294 22.9979C25.2567 22.2678 26.2145 19.4418 25.2686 16.6859Z" fill="#21CA50"/>
<path d="M14.0292 20.5446C14.3692 21.5355 13.835 22.6262 12.8454 22.9661C11.8426 23.31 10.7624 22.7732 10.4225 21.7823C10.0826 20.7913 10.6049 19.7046 11.6064 19.3594C12.5973 19.0195 13.6893 19.5537 14.0292 20.5446Z" fill="#7FB239"/>
<path d="M32.4147 14.2342C32.7546 15.2252 32.2204 16.3159 31.2308 16.6558C30.2294 16.9997 29.1492 16.4615 28.8079 15.4719C28.468 14.481 28.9904 13.3942 29.9918 13.0504C30.9827 12.7091 32.0747 13.2433 32.4147 14.2342Z" fill="#21CA50"/>
<path d="M37.2381 20.0499V37.552C37.2381 38.8553 36.1907 39.9027 34.8874 39.9027H2.35068C1.04737 39.9027 0 38.8553 0 37.552V20.0499C0 18.7466 1.04737 17.6992 2.35068 17.6992H34.8874C36.1907 17.6992 37.2381 18.7466 37.2381 20.0499Z" fill="#22E057"/>
<path d="M3.49127 33.5043V24.0976C5.09645 24.0976 6.39845 22.7956 6.39845 21.1904H30.8397C30.8397 22.7956 32.1417 24.0976 33.7469 24.0976V33.5043C32.1417 33.5043 30.8397 34.8062 30.8397 36.4114H6.39845C6.39845 34.8062 5.09645 33.5043 3.49127 33.5043Z" fill="#22C750"/>
<path d="M18.6191 34.0778C20.8683 34.0778 22.6917 31.7156 22.6917 28.8016C22.6917 25.8876 20.8683 23.5254 18.6191 23.5254C16.3698 23.5254 14.5464 25.8876 14.5464 28.8016C14.5464 31.7156 16.3698 34.0778 18.6191 34.0778Z" fill="#22E057"/>
<path d="M10.8071 28.8016C10.8071 29.849 9.94743 30.7073 8.90138 30.7073C7.84219 30.7073 6.99432 29.849 6.99432 28.8016C6.99432 27.7542 7.84219 26.8945 8.90138 26.8945C9.94743 26.8945 10.8071 27.7542 10.8071 28.8016Z" fill="#22E057"/>
<path d="M30.2452 28.8016C30.2452 29.849 29.3868 30.7073 28.3394 30.7073C27.2802 30.7073 26.4324 29.849 26.4324 28.8016C26.4324 27.7542 27.2802 26.8945 28.3394 26.8945C29.3855 26.8945 30.2452 27.7542 30.2452 28.8016Z" fill="#22E057"/>
</g>
<defs>
<clipPath id="clip0">
<rect width="42" height="42" fill="white"/>
</clipPath>
</defs>
</svg>
