<svg width="83" height="103" viewBox="0 0 83 103" fill="none" xmlns="http://www.w3.org/2000/svg">
<path fill-rule="evenodd" clip-rule="evenodd" d="M72.2903 26.7742V0H69.3773L50.8187 6.74844L69.6129 13.0136V26.7742H72.2903ZM69.6129 2.7631L58.9554 6.63866L69.6129 10.1916V2.7631Z" fill="#21CA50"/>
<path d="M78.3145 65.5161C75.7308 65.5161 73.629 67.6179 73.629 70.2016V79.6141C73.629 81.5994 72.1471 83.3089 70.1805 83.59L69.3398 83.7105C70.3465 82.3678 70.9516 80.7065 70.9516 78.9032C70.9516 74.4734 67.3492 70.871 62.9194 70.871C58.4896 70.871 54.8871 74.4734 54.8871 78.9032C54.8871 80.7065 55.4922 82.3678 56.4989 83.7105L55.6582 83.59C53.6916 83.3089 52.2097 81.5994 52.2097 79.6141V70.2016C52.2097 67.6179 50.1079 65.5161 47.5242 65.5161C44.9405 65.5161 42.8387 67.6179 42.8387 70.2016V80.7694C42.8387 86.5339 46.9472 91.5099 52.6086 92.6009L53.5484 92.7816V103H72.2903V92.7816L73.2301 92.6009C78.8915 91.5099 83 86.5339 83 80.7694V70.2016C83 67.6179 80.8982 65.5161 78.3145 65.5161ZM62.9194 73.5484C65.8726 73.5484 68.2742 75.95 68.2742 78.9032C68.2742 81.8564 65.8726 84.2581 62.9194 84.2581C59.9662 84.2581 57.5645 81.8564 57.5645 78.9032C57.5645 75.95 59.9662 73.5484 62.9194 73.5484ZM80.3226 80.7694C80.3226 85.2527 77.1257 89.1229 72.7227 89.9717L69.6129 90.5701V100.323H56.2258V90.5701L53.116 89.9703C48.713 89.1229 45.5161 85.2527 45.5161 80.7694V70.2016C45.5161 69.0945 46.4171 68.1936 47.5242 68.1936C48.6313 68.1936 49.5323 69.0945 49.5323 70.2016V79.6141C49.5323 82.9234 52.0035 85.7721 55.2793 86.2407L60.0518 86.9221L62.7815 86.9288C62.8283 86.9288 62.8725 86.9355 62.9194 86.9355H64.2581V86.9315L65.5968 86.9355L70.5594 86.2394C73.8352 85.7708 76.3064 82.922 76.3064 79.6127V70.2016C76.3064 69.0945 77.2074 68.1936 78.3145 68.1936C79.4216 68.1936 80.3226 69.0945 80.3226 70.2016V80.7694Z" fill="#3E3E3E"/>
<path fill-rule="evenodd" clip-rule="evenodd" d="M69.6129 46.7742H53.1173L38.7048 57.1519C38.4625 55.8266 37.836 54.6043 36.8627 53.6311L33.4677 50.2361V42.5144C38.4464 41.331 42.6151 37.9253 44.7584 33.2265L47.7759 26.6065C48.053 25.9961 48.1936 25.3481 48.1936 24.6587C48.1936 22.0911 46.1025 20 43.4679 20C41.741 20 40.1894 20.9599 39.4183 22.5034L36.5682 28.2063C35.5856 30.1715 33.9898 31.6735 32.0768 32.5437C32.9537 31.2572 33.4677 29.7043 33.4677 28.0323C33.4677 23.6025 29.8653 20 25.4355 20C21.0057 20 17.4032 23.6025 17.4032 28.0323C17.4032 30.1153 18.2065 32.0096 19.5117 33.438C15.1261 33.6963 11.1622 36.3296 9.29065 40.3404L3.10982 53.5855C2.82602 54.1906 2.67742 54.8627 2.67742 55.5454C2.67742 58.0903 4.7484 60.1613 7.36023 60.1613C9.10456 60.1613 10.703 59.1385 11.4326 57.5548L17.4032 44.6149V71.3395C14.288 72.4453 12.0484 75.4132 12.0484 78.9032C12.0484 80.7065 12.6535 82.3678 13.6602 83.7105L12.8195 83.59C10.8529 83.3089 9.37097 81.5994 9.37097 79.6141V70.2016C9.37097 67.6179 7.26919 65.5161 4.68548 65.5161C2.10177 65.5161 0 67.6179 0 70.2016V80.7694C0 86.5339 4.1085 91.5099 9.7699 92.6009L10.7097 92.7816V103H29.4516V92.7816L30.3914 92.6009C36.0528 91.5099 40.1613 86.5339 40.1613 80.7694V70.2016C40.1613 67.6179 38.0595 65.5161 35.4758 65.5161C32.8921 65.5161 30.7903 67.6179 30.7903 70.2016V79.6141C30.7903 81.5994 29.3084 83.3089 27.3418 83.59L26.5011 83.7105C27.5078 82.3678 28.1129 80.7065 28.1129 78.9032C28.1129 75.6167 26.1263 72.788 23.2935 71.5457L53.9795 49.4516H83V46.7742H72.2903H69.6129ZM30.7903 28.0323C30.7903 25.0791 28.3887 22.6774 25.4355 22.6774C22.4823 22.6774 20.0806 25.0791 20.0806 28.0323C20.0806 30.9855 22.4823 33.3871 25.4355 33.3871C28.3887 33.3871 30.7903 30.9855 30.7903 28.0323ZM9.00148 56.4343L16.5465 40.0806H20.0806V70.5604L24.0968 67.6688V53.4677H27.3284L32.129 58.2684V61.8855L36.1452 58.9939V58.3634C36.1452 57.3058 35.7168 56.271 34.9684 55.524L30.789 51.3445L30.7903 40.2855L31.9095 40.0994C36.4972 39.335 40.3902 36.351 42.3206 32.1167L45.3381 25.4967C45.4559 25.237 45.5161 24.9626 45.5161 24.6788C45.5161 23.5663 44.6272 22.6774 43.5348 22.6774C42.7611 22.6774 42.1279 23.0697 41.8133 23.7002L38.9631 29.4031C36.9096 33.5116 32.781 36.0645 28.1879 36.0645H20.2078C16.5826 36.0645 13.2505 38.1877 11.7164 41.4729L5.53556 54.7168C5.41776 54.9698 5.35484 55.2509 5.35484 55.5307C5.35484 56.615 6.22366 57.4839 7.29329 57.4839C8.06171 57.4839 8.70697 57.0715 9.00148 56.4343ZM26.7742 65.741L29.4516 63.8133V59.3768L26.7742 56.6994V65.741ZM33.4677 79.6127C33.4677 82.922 30.9965 85.7708 27.7207 86.2394L22.7581 86.9355L21.4194 86.9315V86.9355H20.0806C20.0572 86.9355 20.0345 86.9338 20.0117 86.9321C19.9889 86.9305 19.9662 86.9288 19.9428 86.9288L17.2131 86.9221L12.4406 86.2407C9.16481 85.7721 6.69355 82.9234 6.69355 79.6141V70.2016C6.69355 69.0945 5.7926 68.1936 4.68548 68.1936C3.57837 68.1936 2.67742 69.0945 2.67742 70.2016V80.7694C2.67742 85.2527 5.87426 89.1229 10.2773 89.9703L13.3871 90.5701V100.323H26.7742V90.5701L29.884 89.9717C34.287 89.1229 37.4839 85.2527 37.4839 80.7694V70.2016C37.4839 69.0945 36.5829 68.1936 35.4758 68.1936C34.3687 68.1936 33.4677 69.0945 33.4677 70.2016V79.6127ZM20.0806 84.2581C23.0338 84.2581 25.4355 81.8564 25.4355 78.9032C25.4355 75.95 23.0338 73.5484 20.0806 73.5484C17.1275 73.5484 14.7258 75.95 14.7258 78.9032C14.7258 81.8564 17.1275 84.2581 20.0806 84.2581Z" fill="#3E3E3E"/>
<path d="M56.2258 32.129H58.9033V34.8064H56.2258V32.129Z" fill="#21CA50"/>
<path d="M61.5807 32.129H64.2581V34.8064H61.5807V32.129Z" fill="#21CA50"/>
<path d="M66.9355 32.129H69.6129V34.8064H66.9355V32.129Z" fill="#21CA50"/>
</svg>
