<svg width="82" height="82" viewBox="0 0 82 82" fill="none" xmlns="http://www.w3.org/2000/svg">
<path d="M41 50.2581C46.1038 50.2581 50.2581 46.1038 50.2581 41C50.2581 35.8948 46.1038 31.7419 41 31.7419C35.8962 31.7419 31.7419 35.8948 31.7419 41C31.7419 46.1038 35.8962 50.2581 41 50.2581ZM41 34.3871C44.6464 34.3871 47.6129 37.3536 47.6129 41C47.6129 44.6464 44.6464 47.6129 41 47.6129C37.3536 47.6129 34.3871 44.6464 34.3871 41C34.3871 37.3536 37.3536 34.3871 41 34.3871Z" fill="#3E3E3E"/>
<path d="M39.6774 21.1613H42.3226V23.8065H39.6774V21.1613Z" fill="#3E3E3E"/>
<path d="M66.129 47.6129H68.7742V50.2581H66.129V47.6129Z" fill="#3E3E3E"/>
<path d="M13.2258 47.6129H15.871V50.2581H13.2258V47.6129Z" fill="#3E3E3E"/>
<path d="M53.3317 65.8777C58.019 63.554 62.0224 59.9116 64.8012 55.2945C65.6622 55.4545 66.5456 55.5484 67.4516 55.5484C75.4731 55.5484 82 49.0215 82 41C82 32.9785 75.4731 26.4516 67.4516 26.4516C66.5443 26.4516 65.6595 26.5455 64.7985 26.7055C62.4509 22.8039 59.1961 19.5491 55.2945 17.2015C55.4545 16.3405 55.5484 15.4557 55.5484 14.5484C55.5484 6.52694 49.0215 0 41 0C32.9785 0 26.4516 6.52694 26.4516 14.5484C26.4516 15.4557 26.5455 16.3405 26.7055 17.2015C22.8039 19.5491 19.5491 22.8039 17.2015 26.7055C16.3405 26.5455 15.4557 26.4516 14.5484 26.4516C6.52694 26.4516 0 32.9785 0 41C0 49.0215 6.52694 55.5484 14.5484 55.5484C15.4544 55.5484 16.3378 55.4545 17.1988 55.2945C19.9776 59.9129 23.981 63.554 28.6683 65.8777L24.1768 79.3548H19.8387V82H62.1613V79.3548H57.8232L53.3317 65.8777ZM55.0365 79.3548H52.5329L48.6445 67.6923C49.4076 67.4728 50.1562 67.2162 50.8955 66.9345L55.0365 79.3548ZM41 68.7742C42.7167 68.7742 44.407 68.6036 46.0602 68.2967L47.1011 71.4194H34.9003L35.9411 68.2967C37.593 68.6036 39.2833 68.7742 41 68.7742ZM34.0181 74.0645H47.9832L49.7462 79.3548H32.2538L34.0181 74.0645ZM59.9354 50.2197C61.0926 47.0984 64.0632 44.9677 67.4516 44.9677C70.8387 44.9677 73.8106 47.0997 74.9678 50.2197C72.9165 51.8954 70.3005 52.9032 67.4516 52.9032C64.6028 52.9032 61.9854 51.8954 59.9354 50.2197ZM29.0968 41C29.0968 36.7572 27.2597 32.9442 24.3527 30.2831C25.8882 27.9051 27.9051 25.8869 30.2831 24.3527C32.9442 27.2597 36.7572 29.0968 41 29.0968C45.2428 29.0968 49.0558 27.2597 51.7169 24.3527C54.0949 25.8869 56.1118 27.9038 57.6473 30.2831C54.7403 32.9442 52.9032 36.7572 52.9032 41C52.9032 45.2561 54.7522 49.0783 57.6738 51.742C54.0354 57.3775 47.7452 60.8387 41 60.8387C34.2548 60.8387 27.9646 57.3775 24.3262 51.742C27.2478 49.0783 29.0968 45.2561 29.0968 41ZM37.0323 11.9032C37.0323 9.71568 38.8125 7.93548 41 7.93548C43.1875 7.93548 44.9677 9.71568 44.9677 11.9032C44.9677 14.0908 43.1875 15.871 41 15.871C38.8125 15.871 37.0323 14.0908 37.0323 11.9032ZM33.4838 23.7681C34.641 20.6468 37.6115 18.5161 41 18.5161C44.3871 18.5161 47.359 20.6481 48.5162 23.7681C46.4649 25.4438 43.8488 26.4516 41 26.4516C38.1512 26.4516 35.5338 25.4438 33.4838 23.7681ZM63.4839 38.3548C63.4839 36.1673 65.2641 34.3871 67.4516 34.3871C69.6392 34.3871 71.4194 36.1673 71.4194 38.3548C71.4194 40.5424 69.6392 42.3226 67.4516 42.3226C65.2641 42.3226 63.4839 40.5424 63.4839 38.3548ZM79.3548 41C79.3548 43.6782 78.4555 46.1448 76.957 48.1353C75.8434 45.9636 74.0288 44.2536 71.8373 43.2669C73.1929 42.0554 74.0645 40.3123 74.0645 38.3548C74.0645 34.7085 71.098 31.7419 67.4516 31.7419C63.8053 31.7419 60.8387 34.7085 60.8387 38.3548C60.8387 40.3123 61.7103 42.0541 63.0659 43.2669C60.8744 44.2536 59.0598 45.965 57.9462 48.1353C56.4477 46.1448 55.5484 43.6782 55.5484 41C55.5484 34.4374 60.8876 29.0968 67.4516 29.0968C74.0156 29.0968 79.3548 34.4374 79.3548 41ZM62.1679 27.4594C61.3347 27.7861 60.5425 28.1868 59.7912 28.655C58.1036 26.0905 55.9081 23.8951 53.345 22.2088C53.8118 21.4589 54.2139 20.6653 54.5406 19.8334C57.605 21.7961 60.2039 24.3937 62.1679 27.4594ZM41 2.64516C47.564 2.64516 52.9032 7.98574 52.9032 14.5484C52.9032 17.2266 52.0039 19.6932 50.5041 21.6837C49.3905 19.512 47.5759 17.8019 45.3844 16.8153C46.7413 15.6038 47.6129 13.8606 47.6129 11.9032C47.6129 8.25687 44.6464 5.29032 41 5.29032C37.3536 5.29032 34.3871 8.25687 34.3871 11.9032C34.3871 13.8606 35.2587 15.6025 36.6143 16.8153C34.4228 17.8019 32.6082 19.5134 31.4946 21.6837C29.9961 19.6919 29.0968 17.2266 29.0968 14.5484C29.0968 7.98574 34.436 2.64516 41 2.64516ZM27.4594 19.8334C27.7861 20.6666 28.1868 21.4589 28.655 22.2088C26.0919 23.8951 23.8964 26.0905 22.2088 28.655C21.4589 28.1882 20.6653 27.7861 19.8321 27.4594C21.7961 24.3937 24.395 21.7961 27.4594 19.8334ZM14.5484 29.0968C21.1124 29.0968 26.4516 34.4374 26.4516 41C26.4516 43.6782 25.5523 46.1448 24.0538 48.1353C22.9402 45.9636 21.1256 44.2536 18.9341 43.2669C20.2897 42.0554 21.1613 40.3123 21.1613 38.3548C21.1613 34.7085 18.1947 31.7419 14.5484 31.7419C10.902 31.7419 7.93548 34.7085 7.93548 38.3548C7.93548 40.3123 8.80707 42.0541 10.1627 43.2669C7.97119 44.2536 6.15661 45.965 5.043 48.1353C3.54452 46.1448 2.64516 43.6782 2.64516 41C2.64516 34.4374 7.98442 29.0968 14.5484 29.0968ZM10.5806 38.3548C10.5806 36.1673 12.3608 34.3871 14.5484 34.3871C16.7359 34.3871 18.5161 36.1673 18.5161 38.3548C18.5161 40.5424 16.7359 42.3226 14.5484 42.3226C12.3608 42.3226 10.5806 40.5424 10.5806 38.3548ZM7.03216 50.2197C8.18942 47.0984 11.1599 44.9677 14.5484 44.9677C17.9355 44.9677 20.9074 47.0997 22.0646 50.2197C20.0133 51.8954 17.3972 52.9032 14.5484 52.9032C11.6995 52.9032 9.08216 51.8954 7.03216 50.2197ZM19.8308 54.5406C20.664 54.2139 21.4575 53.8118 22.2088 53.345C26.3485 59.6312 33.4229 63.4839 41 63.4839C48.5771 63.4839 55.6516 59.6312 59.7912 53.345C60.5425 53.8132 61.336 54.2139 62.1692 54.5406C57.5653 61.7262 49.5968 66.129 41 66.129C32.4032 66.129 24.4347 61.7262 19.8308 54.5406ZM31.1045 66.9332C31.8438 67.2149 32.5924 67.4728 33.3555 67.691L29.4671 79.3548H26.9635L31.1045 66.9332Z" fill="#3E3E3E"/>
<path d="M7.93548 15.8709V18.5161H18.5161V7.93542H15.871V14.0008L2.25764 0.387451L0.387512 2.25758L14.0008 15.8709H7.93548Z" fill="#21CA50"/>
<path d="M7.93548 66.129H14.0008L0.387512 79.7423L2.25764 81.6124L15.871 67.9991V74.0645H18.5161V63.4838H7.93548V66.129Z" fill="#21CA50"/>
<path d="M74.0645 66.129V63.4838H63.4839V74.0645H66.129V67.9991L79.7423 81.6124L81.6125 79.7423L67.9992 66.129H74.0645Z" fill="#21CA50"/>
<path d="M74.0645 15.8709H67.9992L81.6125 2.25758L79.7423 0.387451L66.129 14.0008V7.93542H63.4839V18.5161H74.0645V15.8709Z" fill="#21CA50"/>
</svg>
