<svg width="77" height="82" viewBox="0 0 77 82" fill="none" xmlns="http://www.w3.org/2000/svg">
<path d="M61.069 36.4847L62.3501 35.2084L61.6239 26.4793L63 25L64.3189 26.8682L65.0982 36.2109L61.069 40.2249L57.0398 36.2122L57.8191 26.8695L59 25.5L60.5141 26.4807L59.7879 35.2084L61.069 36.4847Z" fill="#21CA50"/>
<path d="M38.5 29.8718L39.7865 28.5902L39.043 18.5386L40.5 17L41.7327 18.9168L42.524 29.6033L38.5 33.612L34.4761 29.6033L35.2674 18.9168L36 17L37.5 17.5L37.9571 18.5386L37.2136 28.5902L38.5 29.8718Z" fill="#21CA50"/>
<path d="M15.9311 36.4847L17.2122 35.2084L16.486 26.4793L18 24.5L19.181 26.8682L19.9603 36.2109L15.9311 40.2249L11.9019 36.2122L12.6811 26.8695L14 24.5L15.3761 26.4807L14.65 35.2084L15.9311 36.4847Z" fill="#21CA50"/>
<path fill-rule="evenodd" clip-rule="evenodd" d="M70.3621 17.1935C70.3621 20.3122 68.8008 23.0698 66.4218 24.7481C72.5778 26.9463 77 32.7987 77 39.6774V50.2581C77 53.1757 74.6183 55.5484 71.6897 55.5484H70.3621V76.7097C70.3621 79.6273 67.9804 82 65.0517 82C63.4573 82 62.0434 81.2832 61.069 80.1722C60.0945 81.2832 58.6806 82 57.0862 82H19.9138C18.3194 82 16.9055 81.2832 15.931 80.1722C14.9566 81.2832 13.5427 82 11.9483 82C9.01962 82 6.63793 79.6273 6.63793 76.7097V55.5484H5.31034C2.38169 55.5484 0 53.1757 0 50.2581V39.6774C0 32.7987 4.42219 26.9463 10.5782 24.7481C8.19917 23.0698 6.63793 20.3122 6.63793 17.1935C6.63793 12.0884 10.8079 7.93548 15.931 7.93548C21.0542 7.93548 25.2241 12.0884 25.2241 17.1935C25.2241 20.3122 23.6629 23.0698 21.2839 24.7481C22.1295 25.0497 22.9447 25.4121 23.7173 25.8459C25.4286 21.5925 28.9016 18.3257 33.1405 16.8087C30.7655 15.1303 29.2069 12.3741 29.2069 9.25807C29.2069 4.1529 33.3768 0 38.5 0C43.6232 0 47.7931 4.1529 47.7931 9.25807C47.7931 12.3741 46.2345 15.1303 43.8595 16.8087C48.0971 18.3257 51.5714 21.5925 53.2827 25.8459C54.0553 25.4121 54.8705 25.0497 55.7161 24.7481C53.3371 23.0698 51.7759 20.3122 51.7759 17.1935C51.7759 12.0884 55.9458 7.93548 61.069 7.93548C66.1921 7.93548 70.3621 12.0884 70.3621 17.1935ZM61.069 10.5806C57.4088 10.5806 54.431 13.5472 54.431 17.1935C54.431 20.8399 57.4088 23.8065 61.069 23.8065C64.7291 23.8065 67.7069 20.8399 67.7069 17.1935C67.7069 13.5472 64.7291 10.5806 61.069 10.5806ZM38.5 2.64516C34.8398 2.64516 31.8621 5.61171 31.8621 9.25807C31.8621 12.9044 34.8398 15.871 38.5 15.871C42.1602 15.871 45.1379 12.9044 45.1379 9.25807C45.1379 5.61171 42.1602 2.64516 38.5 2.64516ZM51.7759 55.5484H50.4483C49.0822 55.5484 47.8064 55.0246 46.8439 54.1372C46.123 55.0498 45.2587 55.8407 44.2803 56.4768C47.1492 57.4159 49.7101 59.0281 51.7759 61.131V55.5484ZM40.3852 79.3548L44.96 71.3784L43.5223 68.5123L46.5584 65.4876L47.3736 60.8903C46.9076 60.5782 46.4217 60.2951 45.9225 60.0319L40.2697 79.3548H40.3852ZM32.04 71.3784L36.6148 79.3548H36.7303L31.0761 60.0333C30.5783 60.2965 30.0924 60.5795 29.6264 60.8916L30.4416 65.4889L33.4777 68.5136L32.04 71.3784ZM26.5517 55.5484H25.2241V61.131C27.2899 59.0268 29.8508 57.4146 32.7197 56.4768C31.7413 55.842 30.877 55.0511 30.1561 54.1385C29.1936 55.026 27.9191 55.5484 26.5517 55.5484ZM38.5 55.5484C42.893 55.5484 46.4655 51.9893 46.4655 47.6129C46.4655 43.2365 42.893 39.6774 38.5 39.6774C34.107 39.6774 30.5345 43.2365 30.5345 47.6129C30.5345 51.9893 34.107 55.5484 38.5 55.5484ZM38.5 75.9505L43.4612 58.9924C41.8986 58.4792 40.2325 58.1936 38.5 58.1936C36.7662 58.1936 35.1014 58.4792 33.5375 58.9924L38.5 75.9505ZM15.931 10.5806C12.2709 10.5806 9.2931 13.5472 9.2931 17.1935C9.2931 20.8399 12.2709 23.8065 15.931 23.8065C19.5912 23.8065 22.569 20.8399 22.569 17.1935C22.569 13.5472 19.5912 10.5806 15.931 10.5806ZM27.2726 62.8173C24.3692 65.6939 22.569 69.6736 22.569 74.0645V79.3548H26.5517V72.7419H29.2069V79.3548H33.5574L29.029 71.4604L30.2464 69.0347L27.9722 66.7692L27.2726 62.8173ZM50.4483 79.3548H54.431V74.0645C54.431 69.6736 52.6308 65.6939 49.7274 62.8173L49.0278 66.7692L46.7536 69.0347L47.971 71.4604L43.4426 79.3548H47.7931V72.7419H50.4483V79.3548ZM15.5699 26.4684C15.5055 26.4729 15.4411 26.4775 15.3761 26.4807L12.6811 26.8695C6.93 28.3191 2.65517 33.5036 2.65517 39.6774V50.2581C2.65517 51.7169 3.84602 52.9032 5.31034 52.9032H6.63793V34.3871H9.2931V76.7097C9.2931 78.1685 10.4839 79.3548 11.9483 79.3548C13.4126 79.3548 14.6034 78.1685 14.6034 76.7097V48.9355H17.2586V76.7097C17.2586 78.1685 18.4495 79.3548 19.9138 79.3548V74.0645C19.9138 70.5941 20.8949 67.3551 22.569 64.5763V34.3871H25.2241V52.9032H26.5517C27.4399 52.9032 28.2324 52.4509 28.721 51.7407C28.1793 50.471 27.8793 49.077 27.8793 47.6129C27.8793 45.76 28.3626 44.0195 29.2069 42.5025V39.6774C29.2069 33.5036 24.9321 28.3191 19.181 26.8682L16.486 26.4794C16.4161 26.4764 16.3467 26.4717 16.2775 26.4671C16.1626 26.4593 16.0478 26.4516 15.931 26.4516C15.8093 26.4516 15.6897 26.46 15.5699 26.4684ZM38.1561 18.5288C38.2704 18.5225 38.3849 18.5161 38.5 18.5161C38.6151 18.5161 38.7296 18.5225 38.8439 18.5288C38.9103 18.5325 38.9767 18.5362 39.043 18.5386L41.7327 18.9169C46.0035 19.9908 49.5415 23.1478 51.0258 27.3708C47.5103 30.2236 45.2441 34.5392 45.1525 39.3772C43.3311 37.9131 41.0184 37.0323 38.5 37.0323C35.9816 37.0323 33.6689 37.9131 31.8475 39.3772C31.7559 34.5392 29.4897 30.2236 25.9742 27.3708C27.4585 23.1478 30.9965 19.9908 35.2673 18.9169L37.957 18.5386C38.0233 18.5362 38.0897 18.5325 38.1561 18.5288ZM60.7078 26.4684C60.6435 26.4729 60.579 26.4775 60.514 26.4807L57.819 26.8695C52.0679 28.3191 47.7931 33.5036 47.7931 39.6774V42.5025C48.6374 44.0181 49.1207 45.76 49.1207 47.6129C49.1207 49.077 48.8207 50.471 48.279 51.7407C48.7676 52.4509 49.5614 52.9032 50.4483 52.9032H51.7759V34.3871H54.431V64.5763C56.1051 67.3551 57.0862 70.5941 57.0862 74.0645V79.3548C58.5505 79.3548 59.7414 78.1685 59.7414 76.7097V48.9355H62.3965V76.7097C62.3965 78.1685 63.5874 79.3548 65.0517 79.3548C66.516 79.3548 67.7069 78.1685 67.7069 76.7097V34.3871H70.3621V52.9032H71.6897C73.154 52.9032 74.3448 51.7169 74.3448 50.2581V39.6774C74.3448 33.5036 70.07 28.3191 64.3189 26.8682L61.6239 26.4794C61.554 26.4764 61.4847 26.4717 61.4154 26.4671C61.3005 26.4593 61.1858 26.4516 61.069 26.4516C60.9472 26.4516 60.8277 26.46 60.7078 26.4684Z" fill="#3E3E3E"/>
</svg>
