<svg width="81" height="81" viewBox="0 0 81 81" fill="none" xmlns="http://www.w3.org/2000/svg">
<path d="M80.5218 13.2121L73.6473 1.75326C72.998 0.672822 71.8104 0 70.5484 0C69.2864 0 68.0988 0.672822 67.4495 1.75456L60.5749 13.2121C60.2627 13.7334 60.0968 14.3292 60.0968 14.938C60.0968 16.7866 61.6005 18.2903 63.4491 18.2903H65.3226V36.5806H67.9355V15.6774H63.4491C63.0415 15.6774 62.7097 15.3456 62.7097 14.938C62.7097 14.8047 62.7463 14.6728 62.8155 14.5578L69.69 3.0989C70.0493 2.49924 71.0474 2.49924 71.4067 3.0989L78.2813 14.5578C78.3505 14.6728 78.3871 14.8047 78.3871 14.938C78.3871 15.3456 78.0553 15.6774 77.6476 15.6774H73.1613V39.1935H75.7742V18.2903H77.6476C79.4963 18.2903 81 16.7866 81 14.938C81 14.3292 80.8341 13.7334 80.5218 13.2121Z" fill="#3E3E3E"/>
<path d="M9.59327 13.5505C9.95255 12.9509 10.9507 12.9509 11.31 13.5505L18.1845 25.0094C18.2537 25.1244 18.2903 25.2563 18.2903 25.3896C18.2903 25.7972 17.9585 26.129 17.5509 26.129H13.0645V39.1935H15.6774V28.7419H17.5509C19.3995 28.7419 20.9032 27.2382 20.9032 25.3896C20.9032 24.7821 20.7373 24.185 20.4251 23.6651L13.5505 12.2062C12.9012 11.1244 11.7136 10.4516 10.4516 10.4516C9.18958 10.4516 8.00202 11.1244 7.35271 12.2062L0.478161 23.6638C0.165919 24.185 0 24.7808 0 25.3896C0 27.2382 1.50373 28.7419 3.35235 28.7419H5.22581V45.7258H7.83871V26.129H3.35235C2.94474 26.129 2.6129 25.7972 2.6129 25.3896C2.6129 25.2563 2.64948 25.1244 2.71873 25.0094L9.59327 13.5505Z" fill="#3E3E3E"/>
<path d="M66.629 41.8064H52.2581V37.8871C52.2581 36.1861 51.1619 34.749 49.6452 34.2081V26.129H45.1588C44.7512 26.129 44.4194 25.7972 44.4194 25.3896C44.4194 25.2563 44.4559 25.1244 44.5252 25.0094L51.3997 13.5505C51.759 12.9509 52.7571 12.9509 53.1164 13.5505L59.9909 25.0094C60.0602 25.1244 60.0968 25.2563 60.0968 25.3896C60.0968 25.7972 59.7649 26.129 59.3573 26.129H54.871V40.5H57.4839V28.7419H59.3573C61.2059 28.7419 62.7097 27.2382 62.7097 25.3896C62.7097 24.7821 62.5438 24.185 62.2315 23.6651L55.357 12.2062C54.7077 11.1244 53.5201 10.4516 52.2581 10.4516C50.996 10.4516 49.8085 11.1244 49.1592 12.2062L42.2846 23.6638C41.9724 24.185 41.8064 24.7808 41.8064 25.3896C41.8064 27.2382 43.3102 28.7419 45.1588 28.7419H47.0323V33.9677H32.6613C30.5004 33.9677 28.7419 35.7262 28.7419 37.8871V41.8064H14.371C12.2101 41.8064 10.4516 43.5649 10.4516 45.7258V77.0806C10.4516 79.2415 12.2101 81 14.371 81H66.629C68.7899 81 70.5484 79.2415 70.5484 77.0806V45.7258C70.5484 43.5649 68.7899 41.8064 66.629 41.8064ZM31.3548 37.8871C31.3548 37.1672 31.9401 36.5806 32.6613 36.5806H48.3387C49.0599 36.5806 49.6452 37.1672 49.6452 37.8871V41.8064H31.3548V37.8871ZM53.5645 62.7097C59.6173 62.7097 64.9267 59.5167 67.9355 54.7351V77.0806C67.9355 77.8005 67.3502 78.3871 66.629 78.3871H14.371C13.6498 78.3871 13.0645 77.8005 13.0645 77.0806V54.7351C16.0733 59.5167 21.3827 62.7097 27.4355 62.7097H47.9677V60.0968H27.4355C19.5119 60.0968 13.0645 53.6494 13.0645 45.7258C13.0645 45.0059 13.6498 44.4194 14.371 44.4194H66.629C67.3502 44.4194 67.9355 45.0059 67.9355 45.7258C67.9355 53.6494 61.4881 60.0968 53.5645 60.0968H47.0323V62.7097H53.5645Z" fill="#3E3E3E"/>
<path d="M62.7097 73.1613H65.3226V75.7742H62.7097V73.1613Z" fill="#3E3E3E"/>
<path d="M52.2581 73.1613H54.871V75.7742H52.2581V73.1613Z" fill="#3E3E3E"/>
<path d="M57.4839 73.1613H60.0968V75.7742H57.4839V73.1613Z" fill="#3E3E3E"/>
<path d="M5.22581 48.3387H7.83871V50.9516H5.22581V48.3387Z" fill="#3E3E3E"/>
<path d="M5.22581 53.5645H7.83871V56.1774H5.22581V53.5645Z" fill="#3E3E3E"/>
<path d="M73.1613 41.8064H75.7742V44.4194H73.1613V41.8064Z" fill="#3E3E3E"/>
<path d="M73.1613 47.0323H75.7742V49.6452H73.1613V47.0323Z" fill="#3E3E3E"/>
<path d="M24.2557 19.5967H26.1291V31.3548H28.742V16.9838H24.2557C23.848 16.9838 23.5162 16.652 23.5162 16.2444C23.5162 16.1111 23.5528 15.9792 23.622 15.8642L30.4966 4.4053C30.8558 3.80564 31.854 3.80564 32.2132 4.4053L39.0878 15.8642C39.157 15.9792 39.1936 16.1111 39.1936 16.2444C39.1936 16.652 38.8618 16.9838 38.4542 16.9838H33.9678V31.3548H36.5807V19.5967H38.4542C40.3028 19.5967 41.8065 18.093 41.8065 16.2444C41.8065 15.6369 41.6406 15.0398 41.3284 14.5198L34.4538 3.06096C33.8045 1.97922 32.6169 1.3064 31.3549 1.3064C30.0929 1.3064 28.9053 1.97922 28.256 3.06096L21.3815 14.5185C21.0692 15.0398 20.9033 15.6356 20.9033 16.2444C20.9033 18.093 22.407 19.5967 24.2557 19.5967Z" fill="#21CA50"/>
<path d="M23.5162 67.9354H18.2904C16.8494 67.9354 15.6775 69.1073 15.6775 70.5483V73.1612C15.6775 74.6022 16.8494 75.7741 18.2904 75.7741H23.5162C24.9572 75.7741 26.1291 74.6022 26.1291 73.1612V70.5483C26.1291 69.1073 24.9572 67.9354 23.5162 67.9354ZM18.2904 73.1612V70.5483H23.5162L23.5175 73.1612H18.2904Z" fill="#21CA50"/>
</svg>
