<svg width="20" height="23" viewBox="0 0 20 23" fill="none" xmlns="http://www.w3.org/2000/svg">
<path d="M13.8538 6.43256L4.92985 15.5047C4.60843 15.8261 4.42786 16.2621 4.42786 16.7166C4.42786 17.1712 4.60843 17.6072 4.92985 17.9286C5.25128 18.25 5.68722 18.4306 6.14179 18.4306C6.59635 18.4306 7.03229 18.25 7.35372 17.9286L17.9916 7.14249C18.3099 6.82418 18.5624 6.4463 18.7347 6.03041C18.907 5.61452 18.9956 5.16878 18.9956 4.71863C18.9956 4.26847 18.907 3.82273 18.7347 3.40684C18.5624 2.99096 18.3099 2.61307 17.9916 2.29477C17.6733 1.97646 17.2954 1.72397 16.8795 1.5517C16.4637 1.37944 16.0179 1.29077 15.5678 1.29077C15.1176 1.29077 14.6719 1.37944 14.256 1.5517C13.8401 1.72397 13.4622 1.97646 13.1439 2.29477L2.50599 13.0809C1.54172 14.0451 1 15.353 1 16.7166C1 18.0803 1.54172 19.3882 2.50599 20.3524C3.47027 21.3167 4.7781 21.8584 6.14179 21.8584C7.50547 21.8584 8.81331 21.3167 9.77758 20.3524L18.5671 11.5743" stroke="white" stroke-width="1.71393" stroke-linecap="round" stroke-linejoin="round"/>
</svg>
