<svg width="12" height="14" viewBox="0 0 12 14" fill="none" xmlns="http://www.w3.org/2000/svg">
<g opacity="0.5">
<path fill-rule="evenodd" clip-rule="evenodd" d="M1.89474 3.18182C1.54593 3.18182 1.26316 3.46673 1.26316 3.81818V12.0909C1.26316 12.4424 1.54593 12.7273 1.89474 12.7273H10.1053C10.4541 12.7273 10.7368 12.4424 10.7368 12.0909V3.81818C10.7368 3.46673 10.4541 3.18182 10.1053 3.18182H1.89474ZM0 3.81818C0 2.76382 0.848303 1.90909 1.89474 1.90909H10.1053C11.1517 1.90909 12 2.76382 12 3.81818V12.0909C12 13.1453 11.1517 14 10.1053 14H1.89474C0.848303 14 0 13.1453 0 12.0909V3.81818Z" fill="#3E3E3E"/>
<path d="M3.15789 0.636364C3.15789 0.28491 3.44066 0 3.78947 0C4.13828 0 4.42105 0.28491 4.42105 0.636364V3.18182C4.42105 3.53327 4.13828 3.81818 3.78947 3.81818C3.44066 3.81818 3.15789 3.53327 3.15789 3.18182V0.636364Z" fill="#3E3E3E"/>
<path d="M7.57895 0.636364C7.57895 0.28491 7.86171 0 8.21053 0C8.55934 0 8.8421 0.28491 8.8421 0.636364V3.18182C8.8421 3.53327 8.55934 3.81818 8.21053 3.81818C7.86171 3.81818 7.57895 3.53327 7.57895 3.18182V0.636364Z" fill="#3E3E3E"/>
<path d="M2.52632 6.36364C2.52632 6.01218 2.80908 5.72727 3.15789 5.72727C3.50671 5.72727 3.78947 6.01218 3.78947 6.36364C3.78947 6.71509 3.50671 7 3.15789 7C2.80908 7 2.52632 6.71509 2.52632 6.36364Z" fill="#3E3E3E"/>
<path d="M4.42105 6.36364C4.42105 6.01218 4.70382 5.72727 5.05263 5.72727C5.40144 5.72727 5.68421 6.01218 5.68421 6.36364C5.68421 6.71509 5.40144 7 5.05263 7C4.70382 7 4.42105 6.71509 4.42105 6.36364Z" fill="#3E3E3E"/>
<path d="M6.31579 6.36364C6.31579 6.01218 6.59856 5.72727 6.94737 5.72727C7.29618 5.72727 7.57895 6.01218 7.57895 6.36364C7.57895 6.71509 7.29618 7 6.94737 7C6.59856 7 6.31579 6.71509 6.31579 6.36364Z" fill="#3E3E3E"/>
<path d="M8.21053 6.36364C8.21053 6.01218 8.49329 5.72727 8.8421 5.72727C9.19092 5.72727 9.47368 6.01218 9.47368 6.36364C9.47368 6.71509 9.19092 7 8.8421 7C8.49329 7 8.21053 6.71509 8.21053 6.36364Z" fill="#3E3E3E"/>
<path d="M2.52632 8.27273C2.52632 7.92127 2.80908 7.63636 3.15789 7.63636C3.50671 7.63636 3.78947 7.92127 3.78947 8.27273C3.78947 8.62418 3.50671 8.90909 3.15789 8.90909C2.80908 8.90909 2.52632 8.62418 2.52632 8.27273Z" fill="#3E3E3E"/>
<path d="M4.42105 8.27273C4.42105 7.92127 4.70382 7.63636 5.05263 7.63636C5.40144 7.63636 5.68421 7.92127 5.68421 8.27273C5.68421 8.62418 5.40144 8.90909 5.05263 8.90909C4.70382 8.90909 4.42105 8.62418 4.42105 8.27273Z" fill="#3E3E3E"/>
<path d="M6.31579 8.27273C6.31579 7.92127 6.59856 7.63636 6.94737 7.63636C7.29618 7.63636 7.57895 7.92127 7.57895 8.27273C7.57895 8.62418 7.29618 8.90909 6.94737 8.90909C6.59856 8.90909 6.31579 8.62418 6.31579 8.27273Z" fill="#3E3E3E"/>
<path d="M8.21053 8.27273C8.21053 7.92127 8.49329 7.63636 8.8421 7.63636C9.19092 7.63636 9.47368 7.92127 9.47368 8.27273C9.47368 8.62418 9.19092 8.90909 8.8421 8.90909C8.49329 8.90909 8.21053 8.62418 8.21053 8.27273Z" fill="#3E3E3E"/>
<path d="M2.52632 10.1818C2.52632 9.83036 2.80908 9.54545 3.15789 9.54545C3.50671 9.54545 3.78947 9.83036 3.78947 10.1818C3.78947 10.5333 3.50671 10.8182 3.15789 10.8182C2.80908 10.8182 2.52632 10.5333 2.52632 10.1818Z" fill="#3E3E3E"/>
<path d="M4.42105 10.1818C4.42105 9.83036 4.70382 9.54545 5.05263 9.54545C5.40144 9.54545 5.68421 9.83036 5.68421 10.1818C5.68421 10.5333 5.40144 10.8182 5.05263 10.8182C4.70382 10.8182 4.42105 10.5333 4.42105 10.1818Z" fill="#3E3E3E"/>
<path d="M6.31579 10.1818C6.31579 9.83036 6.59856 9.54545 6.94737 9.54545C7.29618 9.54545 7.57895 9.83036 7.57895 10.1818C7.57895 10.5333 7.29618 10.8182 6.94737 10.8182C6.59856 10.8182 6.31579 10.5333 6.31579 10.1818Z" fill="#3E3E3E"/>
<path d="M8.21053 10.1818C8.21053 9.83036 8.49329 9.54545 8.8421 9.54545C9.19092 9.54545 9.47368 9.83036 9.47368 10.1818C9.47368 10.5333 9.19092 10.8182 8.8421 10.8182C8.49329 10.8182 8.21053 10.5333 8.21053 10.1818Z" fill="#3E3E3E"/>
</g>
</svg>
