<svg width="21" height="15" viewBox="0 0 21 15" fill="none" xmlns="http://www.w3.org/2000/svg">
<g opacity="0.5" filter="url(#filter0_d)">
<path fill-rule="evenodd" clip-rule="evenodd" d="M16.8413 0.146446C17.0529 0.341706 17.0529 0.658333 16.8413 0.853594L11.6955 5.60356C11.484 5.79882 11.141 5.79882 10.9295 5.60356L8.60416 3.45709L4.92468 6.85355C4.71315 7.04882 4.37018 7.04882 4.15865 6.85355C3.94712 6.65829 3.94712 6.34167 4.15865 6.14641L8.22115 2.39643C8.43268 2.20117 8.77565 2.20117 8.98718 2.39643L11.3125 4.5429L16.0753 0.146446C16.2869 -0.0488152 16.6298 -0.0488152 16.8413 0.146446Z" fill="#3E3E3E"/>
<path fill-rule="evenodd" clip-rule="evenodd" d="M12.6667 0.50002C12.6667 0.223879 12.9092 2.32829e-05 13.2083 2.32829e-05H16.4583C16.7575 2.32829e-05 17 0.223879 17 0.50002V3.5C17 3.77614 16.7575 4 16.4583 4C16.1592 4 15.9167 3.77614 15.9167 3.5V1.00002H13.2083C12.9092 1.00002 12.6667 0.77616 12.6667 0.50002Z" fill="#3E3E3E"/>
</g>
<defs>
<filter id="filter0_d" x="0" y="0" width="21" height="15" filterUnits="userSpaceOnUse" color-interpolation-filters="sRGB">
<feFlood flood-opacity="0" result="BackgroundImageFix"/>
<feColorMatrix in="SourceAlpha" type="matrix" values="0 0 0 0 0 0 0 0 0 0 0 0 0 0 0 0 0 0 127 0"/>
<feOffset dy="4"/>
<feGaussianBlur stdDeviation="2"/>
<feColorMatrix type="matrix" values="0 0 0 0 0 0 0 0 0 0 0 0 0 0 0 0 0 0 0.25 0"/>
<feBlend mode="normal" in2="BackgroundImageFix" result="effect1_dropShadow"/>
<feBlend mode="normal" in="SourceGraphic" in2="effect1_dropShadow" result="shape"/>
</filter>
</defs>
</svg>
