<svg width="83" height="83" viewBox="0 0 83 83" fill="none" xmlns="http://www.w3.org/2000/svg">
<path d="M76.3064 0H38.8226C35.1318 0 32.129 3.00273 32.129 6.69355V37.7864C31.7087 37.6365 31.2615 37.5401 30.7903 37.5401C29.7582 37.5401 28.8251 37.9431 28.1129 38.5843C27.4007 37.9417 26.4676 37.5401 25.4355 37.5401C24.9643 37.5401 24.5171 37.6365 24.0968 37.7864V32.129H29.4516V5.35484H0V32.129H16.0645V43.239C14.2693 41.3501 11.7204 40.1613 8.85958 40.1613C6.92782 40.1613 5.35484 41.7329 5.35484 43.666C5.35484 44.2069 5.48336 44.7504 5.72432 45.2337L7.28392 48.3542C7.77389 49.3328 8.03226 50.4265 8.03226 51.5189V59.6957C8.03226 61.1349 8.37095 62.5753 9.00952 63.8618L12.0484 69.9824V72.2903H9.37097V83H76.3064C79.9973 83 83 79.9973 83 76.3064V6.69355C83 3.00273 79.9973 0 76.3064 0ZM38.8226 2.67742H76.3064C78.5207 2.67742 80.3226 4.47932 80.3226 6.69355V10.7097H34.8065V6.69355C34.8065 4.47932 36.6084 2.67742 38.8226 2.67742ZM2.67742 29.4516V8.03226H26.7742V29.4516H24.0968V25.4917C24.0968 23.2775 22.2949 21.4756 20.0806 21.4756C17.8664 21.4756 16.0645 23.2775 16.0645 25.4917V29.4516H2.67742ZM11.4071 62.6717C10.952 61.7533 10.7097 60.7239 10.7097 59.6971V51.5202C10.7097 50.0142 10.3522 48.5055 9.67887 47.1574L8.11927 44.0369C8.06171 43.9231 8.03226 43.7945 8.03226 43.666C8.03226 43.2095 8.40308 42.8387 8.9881 42.8387C12.8904 42.8387 16.0645 46.0141 16.0645 49.9165V52.2097H18.7419V25.4917C18.7419 24.7541 19.3417 24.153 20.0806 24.153C20.8196 24.153 21.4194 24.7541 21.4194 25.4917V46.9111H24.0968V41.5562C24.0968 40.8186 24.6965 40.2175 25.4355 40.2175C26.1745 40.2175 26.7742 40.8186 26.7742 41.5562V46.9111H29.4516V41.5562C29.4516 40.8186 30.0514 40.2175 30.7903 40.2175C31.5293 40.2175 32.129 40.8186 32.129 41.5562V46.9111H34.8065V44.2336C34.8065 43.4947 35.4062 42.8949 36.1452 42.8949C36.8841 42.8949 37.4839 43.4947 37.4839 44.2336V61.6369C37.4839 63.076 37.0086 64.5031 36.1452 65.653L33.4677 69.2233V72.2903H14.7258V69.3559L11.4071 62.6717ZM66.9355 18.7419H74.9677V26.7742H66.9355V18.7419ZM74.9691 29.4516L74.9704 56.2258H50.871V45.5161H40.1613V29.4516H50.871V18.7419H64.2581V29.4516H74.9691ZM40.1613 48.1936H48.1936V56.2258H40.1613V48.1936ZM48.1936 26.7742H40.1613V18.7419H48.1936V26.7742ZM12.0484 80.3226V74.9677H36.1452V80.3226H12.0484ZM76.3064 80.3226H38.8226V74.9677H76.3064C77.8192 74.9677 79.2007 74.4443 80.3226 73.5942V76.3064C80.3226 78.5207 78.5207 80.3226 76.3064 80.3226ZM76.3064 72.2903H36.1452V70.1149L38.2871 67.2595C39.496 65.649 40.1613 63.653 40.1613 61.6369V58.9032H74.9677C76.4443 58.9032 77.6452 57.7024 77.6452 56.2258V18.7419C77.6452 17.2653 76.4443 16.0645 74.9677 16.0645H40.1613C38.6847 16.0645 37.4839 17.2653 37.4839 18.7419V40.4638C37.0635 40.3139 36.6164 40.2175 36.1452 40.2175C35.6739 40.2175 35.2268 40.3139 34.8065 40.4638V13.3871H80.3226V68.2742C80.3226 70.4884 78.5207 72.2903 76.3064 72.2903Z" fill="#FF942A"/>
<path d="M56.2258 5.35484H64.2581V8.03226H56.2258V5.35484Z" fill="#FF942A"/>
<path d="M50.871 5.35484H53.5484V8.03226H50.871V5.35484Z" fill="#FF942A"/>
<path d="M43.6232 61.5806H42.8387C41.3621 61.5806 40.1613 62.7815 40.1613 64.2581V66.9355C40.1613 68.4121 41.3621 69.6129 42.8387 69.6129H43.6232C44.3274 69.6129 45.0181 69.3264 45.5161 68.8284L48.7478 65.5968L45.5161 62.3651C45.0181 61.8671 44.3274 61.5806 43.6232 61.5806ZM43.6232 66.9355H42.8387V64.2581H43.6232L44.9619 65.5968L43.6232 66.9355Z" fill="#FF942A"/>
<path d="M58.9032 61.5806H56.2258C54.7492 61.5806 53.5484 62.7815 53.5484 64.2581V66.9355C53.5484 68.4121 54.7492 69.6129 56.2258 69.6129H58.9032C60.3798 69.6129 61.5806 68.4121 61.5806 66.9355V64.2581C61.5806 62.7815 60.3798 61.5806 58.9032 61.5806ZM56.2258 66.9355V64.2581H58.9032L58.9059 66.9355H56.2258Z" fill="#FF942A"/>
<path d="M72.2903 61.5806H71.5058C70.8017 61.5806 70.1109 61.8671 69.6129 62.3651L66.3813 65.5968L69.6129 68.8284C70.1109 69.3264 70.8017 69.6129 71.5058 69.6129H72.2903C73.7669 69.6129 74.9677 68.4121 74.9677 66.9355V64.2581C74.9677 62.7815 73.7669 61.5806 72.2903 61.5806ZM71.5058 66.9355L70.1671 65.5968L71.5058 64.2581H72.2903L72.293 66.9355H71.5058Z" fill="#FF942A"/>
<path d="M42.8387 21.4194H45.5161V24.0968H42.8387V21.4194Z" fill="#FF942A"/>
<path d="M69.6129 21.4194H72.2903V24.0968H69.6129V21.4194Z" fill="#FF942A"/>
<path d="M42.8387 50.871H45.5161V53.5484H42.8387V50.871Z" fill="#FF942A"/>
<path d="M58.9032 29.4516H61.5806V24.0968C61.5806 22.6202 60.3798 21.4194 58.9032 21.4194H53.5484V24.0968H58.9032V29.4516Z" fill="#FF942A"/>
<path d="M56.2258 32.129V26.7742H53.5484V32.129H42.8387V34.8065H53.5484C55.025 34.8065 56.2258 33.6056 56.2258 32.129Z" fill="#FF942A"/>
<path d="M42.8387 37.4839H45.5161V42.8387H42.8387V37.4839Z" fill="#FF942A"/>
<path d="M53.5484 45.5161H56.2258V42.8387C56.2258 41.3621 55.025 40.1613 53.5484 40.1613H48.1936V42.8387H53.5484V45.5161Z" fill="#FF942A"/>
<path d="M56.2258 48.1936H53.5484V50.871C53.5484 52.3476 54.7492 53.5484 56.2258 53.5484H61.5806V50.871H56.2258V48.1936Z" fill="#FF942A"/>
<path d="M58.9032 42.8387H69.6129V53.5484H72.2903V42.8387C72.2903 41.3621 71.0895 40.1613 69.6129 40.1613H58.9032V42.8387Z" fill="#FF942A"/>
<path d="M64.2581 45.5161H58.9032V48.1936H64.2581V53.5484H66.9355V48.1936C66.9355 46.717 65.7347 45.5161 64.2581 45.5161Z" fill="#FF942A"/>
<path d="M58.9032 32.129V34.8065H64.2581V37.4839H66.9355V34.8065C66.9355 33.3299 65.7347 32.129 64.2581 32.129H58.9032Z" fill="#FF942A"/>
<path d="M69.6129 32.129H72.2903V37.4839H69.6129V32.129Z" fill="#FF942A"/>
<path d="M21.8116 9.76321L10.7097 20.8651L6.30131 16.4568L4.40837 18.3497L10.7097 24.651L23.7045 11.6561L21.8116 9.76321Z" fill="#FF942A"/>
</svg>
