<svg width="83" height="83" viewBox="0 0 83 83" fill="none" xmlns="http://www.w3.org/2000/svg">
<path d="M41.5 32.129C40.7627 32.129 40.1613 31.5277 40.1613 30.7903H37.4839C37.4839 32.533 38.6069 34.0057 40.1613 34.56V37.4839H42.8387V34.56C44.3931 34.0057 45.5161 32.533 45.5161 30.7903C45.5161 28.5764 43.714 26.7742 41.5 26.7742C40.7627 26.7742 40.1613 26.1728 40.1613 25.4355C40.1613 24.6981 40.7627 24.0968 41.5 24.0968C42.2373 24.0968 42.8387 24.6981 42.8387 25.4355H45.5161C45.5161 23.6928 44.3931 22.2201 42.8387 21.6658V18.7419H40.1613V21.6658C38.6069 22.2201 37.4839 23.6928 37.4839 25.4355C37.4839 27.6495 39.286 29.4516 41.5 29.4516C42.2373 29.4516 42.8387 30.053 42.8387 30.7903C42.8387 31.5277 42.2373 32.129 41.5 32.129Z" fill="#FF942A"/>
<path d="M58.9032 72.5191V61.3264C58.9032 55.9846 56.55 50.9592 52.4463 47.5405C51.4455 46.7065 50.871 45.4815 50.871 44.1774C50.871 42.8734 51.4455 41.6484 52.4463 40.8143C56.55 37.3956 58.9032 32.3702 58.9032 27.0285V15.8181C60.4576 15.2638 61.5806 13.7911 61.5806 12.0484V9.37097C61.5806 7.157 59.7785 5.35484 57.5645 5.35484H25.4355C23.2215 5.35484 21.4194 7.157 21.4194 9.37097V12.0484C21.4194 13.7943 22.5384 15.2827 24.0968 15.8357V27.0285C24.0968 32.3702 26.45 37.3956 30.5537 40.8143C31.5545 41.6484 32.129 42.8734 32.129 44.1774C32.129 45.4815 31.5545 46.7065 30.5537 47.5405C26.45 50.9592 24.0968 55.9846 24.0968 61.3264V72.5368C22.5424 73.0911 21.4194 74.5638 21.4194 76.3064V78.9839C21.4194 81.1978 23.2215 83 25.4355 83H57.5645C59.7785 83 61.5806 81.1978 61.5806 78.9839V76.3064C61.5806 74.5605 60.4616 73.0721 58.9032 72.5191ZM32.2683 49.5976C33.8815 48.2524 34.8065 46.2777 34.8065 44.1774C34.8065 42.0772 33.8815 40.1025 32.2683 38.7585C28.777 35.8477 26.7742 31.5721 26.7742 27.0285V16.0645H29.4516V13.3871H25.4355C24.6981 13.3871 24.0968 12.7857 24.0968 12.0484V9.37097C24.0968 8.63363 24.6981 8.03226 25.4355 8.03226H57.5645C58.3019 8.03226 58.9032 8.63363 58.9032 9.37097V12.0484C58.9032 12.7857 58.3019 13.3871 57.5645 13.3871H32.129V16.0645H56.2258V27.0285C56.2258 31.5734 54.223 35.8477 50.7317 38.7572C49.1185 40.1025 48.1936 42.0772 48.1936 44.1774C48.1936 46.2777 49.1185 48.2524 50.7317 49.5963C53.8203 52.1711 55.7369 55.816 56.1402 59.7693C55.6852 59.9837 55.2617 60.206 54.8897 60.4184C53.7987 61.0427 52.8535 61.5806 50.8657 61.5806C48.8779 61.5806 47.934 61.0427 46.8418 60.4184C45.5991 59.7079 44.1892 58.9032 41.4895 58.9032C38.7919 58.9032 37.3832 59.7079 36.1399 60.4184C35.049 61.0427 34.1077 61.5806 32.1199 61.5806C30.136 61.5806 29.1934 61.0427 28.1038 60.4184C27.7312 60.206 27.3122 59.985 26.8598 59.7706C27.2612 55.8173 29.1784 52.1724 32.2683 49.5976ZM58.9032 78.9839C58.9032 79.7212 58.3019 80.3226 57.5645 80.3226H25.4355C24.6981 80.3226 24.0968 79.7212 24.0968 78.9839V76.3064C24.0968 75.5691 24.6981 74.9677 25.4355 74.9677H50.871V72.2903H26.7742V62.7429C28.0168 63.4521 29.4235 64.2581 32.1199 64.2581C34.8169 64.2581 36.2256 63.4534 37.4688 62.7429C38.5605 62.1186 39.5024 61.5806 41.4895 61.5806C43.4773 61.5806 44.4212 62.1186 45.5135 62.7429C46.7568 63.4534 48.1654 64.2581 50.8657 64.2581C53.566 64.2581 54.974 63.4534 56.218 62.7429C56.2206 62.7416 56.2232 62.7403 56.2258 62.7389V72.2903H53.5484V74.9677H57.5645C58.3019 74.9677 58.9032 75.5691 58.9032 76.3064V78.9839Z" fill="#FF942A"/>
<path d="M40.1613 40.1613H42.8387V42.8387H40.1613V40.1613Z" fill="#FF942A"/>
<path d="M40.1613 45.5161H42.8387V48.1936H40.1613V45.5161Z" fill="#FF942A"/>
<path d="M40.1613 50.871H42.8387V53.5484H40.1613V50.871Z" fill="#FF942A"/>
<path d="M18.7419 56.2258V40.1613H25.4355V37.4839H16.0645V58.9032H17.6653L13.3871 65.7478L9.10885 58.9032H10.7097V42.8387H8.03226V56.2258H4.27825L13.3871 70.8006L22.4959 56.2258H18.7419Z" fill="#FF942A"/>
<path d="M0 0V40.1613H13.3871V37.4839H10.6025C10.0135 33.3886 6.77264 30.1478 2.67742 29.5588V10.6025C6.77264 10.0135 10.0135 6.77264 10.6025 2.67742H72.3975C72.9865 6.77264 76.2274 10.0135 80.3226 10.6025V29.5588C76.2274 30.1491 72.9865 33.3886 72.3975 37.4839H69.6129V40.1613H83V0H0ZM7.89695 37.4839H2.67742V32.2643C5.29601 32.7984 7.3629 34.8653 7.89695 37.4839ZM2.67742 7.89695V2.67742H7.89695C7.3629 5.29601 5.29601 7.3629 2.67742 7.89695ZM75.1031 2.67742H80.3226V7.89695C77.704 7.3629 75.6371 5.29601 75.1031 2.67742ZM75.1031 37.4839C75.6371 34.8653 77.704 32.7984 80.3226 32.2643V37.4839H75.1031Z" fill="#FF942A"/>
<path d="M74.9677 42.8387H72.2903V62.9194H73.8912L69.6129 69.7639L65.3347 62.9194H66.9355V37.4839H57.5645V40.1613H64.2581V60.2419H60.5041L69.6129 74.8167L78.7218 60.2419H74.9677V42.8387Z" fill="#FF942A"/>
</svg>
