<svg width="83" height="83" viewBox="0 0 83 83" fill="none" xmlns="http://www.w3.org/2000/svg">
<path d="M66.4 6.26159V7.14827L45.2772 0.420717C44.0322 0.0226266 42.7157 -0.0948993 41.4208 0.0764396C40.1258 0.247779 38.8839 0.703803 37.7828 1.41231L29.0412 7.02308C27.9681 7.70845 27.0531 8.61774 26.3576 9.68975C25.6622 10.7618 25.2026 11.9716 25.0097 13.2378H5.53333C5.16645 13.2378 4.8146 13.3848 4.55517 13.6465C4.29575 13.9081 4.15 14.263 4.15 14.6331V45.3284C4.15 45.6984 4.29575 46.0533 4.55517 46.315C4.8146 46.5766 5.16645 46.7236 5.53333 46.7236H63.6333C64.0002 46.7236 64.3521 46.5766 64.6115 46.315C64.8709 46.0533 65.0167 45.6984 65.0167 45.3284V30.4275C65.2028 30.2861 65.3856 30.1382 65.563 29.9807H66.4V32.7712C66.4 33.1413 66.5457 33.4961 66.8052 33.7578C67.0646 34.0194 67.4165 34.1664 67.7833 34.1665H83V31.376H69.1667V7.65684H83V4.86635H67.7833C67.4165 4.86635 67.0646 5.01335 66.8052 5.27501C66.5457 5.53667 66.4 5.89155 66.4 6.26159ZM44.6018 36.9569C45.1514 36.9567 45.6992 36.8938 46.2348 36.7697C44.4069 38.7393 43.2589 41.2519 42.962 43.9332H35.9667V16.0283H37.0141C37.9013 16.0283 38.7686 16.2937 39.5062 16.7908C40.2439 17.2879 40.8188 17.9945 41.1583 18.8212C41.4977 19.648 41.5866 20.5576 41.4134 21.4353C41.2403 22.3129 40.8131 23.119 40.1857 23.7517L39.4736 24.4698C38.4593 25.4927 37.7686 26.7961 37.4887 28.215C37.2088 29.634 37.3525 31.1048 37.9014 32.4414C38.4503 33.778 39.3799 34.9205 40.5725 35.7242C41.7652 36.528 43.1674 36.957 44.6018 36.9569ZM53.95 32.8506C52.9279 32.9648 51.9239 33.2073 50.9614 33.5725L53.95 30.5583V32.8506ZM53.95 35.6629V43.9332H45.7504C46.0522 41.848 47.0132 39.9168 48.4906 38.4267C49.9679 36.9366 51.8826 35.9673 53.95 35.6629ZM33.2 43.9332H27.6667V16.0283H33.2V43.9332ZM24.9 43.9332H17.9046C17.5869 41.1043 16.3271 38.4679 14.3312 36.4548C12.3353 34.4417 9.72136 33.171 6.91667 32.8506V27.1109C9.72136 26.7904 12.3353 25.5198 14.3312 23.5067C16.3271 21.4936 17.5869 18.8571 17.9046 16.0283H24.9V43.9332ZM15.1163 16.0283C14.8145 18.1135 13.8534 20.0447 12.3761 21.5347C10.8988 23.0248 8.98403 23.9941 6.91667 24.2985V16.0283H15.1163ZM6.91667 35.6629C8.98403 35.9673 10.8988 36.9366 12.3761 38.4267C13.8534 39.9168 14.8145 41.848 15.1163 43.9332H6.91667V35.6629ZM62.25 43.9332H56.7167V31.8603C58.5181 32.4284 60.4486 32.4284 62.25 31.8603V43.9332ZM65.0164 27.1904C64.6496 27.1904 64.2978 27.3374 64.0384 27.599C62.8292 28.8157 61.191 29.4989 59.483 29.4989C57.7751 29.4989 56.1369 28.8155 54.9278 27.5988C54.6683 27.3373 54.3165 27.1904 53.9497 27.1904C53.5828 27.1904 53.231 27.3373 52.9715 27.5988L47.7735 32.8414C47.357 33.262 46.8625 33.5957 46.3182 33.8235C45.7738 34.0512 45.1903 34.1686 44.601 34.1688C44.0116 34.169 43.428 34.0521 42.8835 33.8247C42.339 33.5973 41.8442 33.264 41.4275 32.8436C41.0108 32.4233 40.6803 31.9243 40.4548 31.3751C40.2294 30.8259 40.1135 30.2373 40.1137 29.6429C40.1139 29.0485 40.2303 28.4599 40.4561 27.9109C40.6819 27.3618 41.0128 26.8631 41.4299 26.4431L42.1419 25.725C43.1562 24.702 43.8471 23.3987 44.1269 21.9798C44.4068 20.5608 44.2632 19.0901 43.7143 17.7535C43.1655 16.4168 42.2359 15.2744 41.0433 14.4706C39.8507 13.6669 38.4485 13.2378 37.0141 13.2378H27.8208C28.1815 11.6409 29.1543 10.2529 30.5266 9.37722L39.2681 3.76644C40.0286 3.27715 40.8863 2.96223 41.7807 2.84392C42.675 2.72561 43.5842 2.8068 44.4441 3.08176L66.4 10.0747V27.1904H65.0164Z" fill="#FF942A"/>
<path d="M8.3 81.6047V80.2095H12.45C12.8169 80.2095 13.1687 80.0625 13.4282 79.8008C13.6876 79.5391 13.8333 79.1843 13.8333 78.8142V77.3397L13.9641 77.434C19.671 81.5453 26.6388 83.4816 33.6281 82.8981C40.6173 82.3147 47.1748 79.2495 52.1339 74.2478L62.5365 63.7556C63.6429 62.6399 64.2961 61.1475 64.3679 59.5711C64.4396 57.9947 63.9248 56.4482 62.9244 55.2349C61.924 54.0216 60.5102 53.2292 58.9604 53.013C57.4106 52.7968 55.8367 53.1725 54.5473 54.0664C54.1745 53.255 53.6053 52.5513 52.892 52.0201C52.1787 51.4889 51.3444 51.1473 50.4658 51.0269C49.5873 50.9064 48.6928 51.0108 47.8648 51.3306C47.0368 51.6504 46.3019 52.1753 45.7278 52.8568C45.0053 52.4202 44.1914 52.1605 43.3514 52.0982C42.5114 52.036 41.6686 52.1731 40.8906 52.4985C40.1125 52.8239 39.4209 53.3286 38.871 53.9721C38.3212 54.6156 37.9284 55.38 37.7241 56.2042L36.2699 62.0713H28.2397L27.2615 61.0847C25.5302 59.3391 23.2784 58.2155 20.8522 57.8866C18.4261 57.5578 15.96 58.042 13.8333 59.2647V57.8856C13.8333 57.5155 13.6876 57.1607 13.4282 56.899C13.1687 56.6373 12.8169 56.4903 12.45 56.4903H8.3C8.3 56.1203 8.15425 55.7654 7.89483 55.5038C7.6354 55.2421 7.28355 55.0951 6.91667 55.0951H0V57.8856H5.53333V80.2095H0V82.9999H6.91667C7.28355 82.9999 7.6354 82.8529 7.89483 82.5913C8.15425 82.3296 8.3 81.9747 8.3 81.6047ZM49.1441 53.8443C49.5074 53.7527 49.8864 53.7439 50.2535 53.8188C50.6206 53.8936 50.9665 54.05 51.266 54.2768C51.5656 54.5035 51.8112 54.7947 51.985 55.1293C52.1588 55.4639 52.2564 55.8333 52.2708 56.2108L42.618 65.9466C42.4572 65.442 42.2256 64.9632 41.9304 64.5247L47.5955 55.0018C47.7649 54.7152 47.9891 54.4653 48.2549 54.2666C48.5207 54.0679 48.8229 53.9244 49.1441 53.8443ZM40.4082 56.881C40.496 56.5268 40.6555 56.1947 40.8765 55.9055C41.0976 55.6164 41.3755 55.3764 41.6929 55.2007C42.0103 55.025 42.3602 54.9173 42.7208 54.8845C43.0813 54.8516 43.4447 54.8943 43.7882 55.0098C43.9458 55.0631 44.0981 55.1313 44.2431 55.2134L39.8147 62.6576C39.5693 62.5339 39.3152 62.4288 39.0543 62.3434L40.4082 56.881ZM19.3667 60.5768C20.47 60.5738 21.563 60.7915 22.5823 61.2174C23.6017 61.6433 24.5272 62.2689 25.3052 63.058L26.6885 64.4532C26.948 64.7148 27.2998 64.8618 27.6667 64.8618H37.35C38.0838 64.8618 38.7875 65.1558 39.3063 65.6791C39.8252 66.2024 40.1167 66.9122 40.1167 67.6523C40.1167 68.3924 39.8252 69.1021 39.3063 69.6255C38.7875 70.1488 38.0838 70.4428 37.35 70.4428H24.9V73.2333H37.35C38.3505 73.2325 39.3321 72.9583 40.1906 72.4399C41.049 71.9216 41.7521 71.1783 42.2253 70.2891L55.6198 56.7794C56.2777 56.1166 57.1696 55.7444 58.0995 55.7447C59.0294 55.7449 59.9211 56.1176 60.5786 56.7808C61.2361 57.444 61.6057 58.3433 61.606 59.2812C61.6063 60.2191 61.2373 61.1187 60.5802 61.7823L50.1776 72.2745C45.6816 76.8092 39.7365 79.5882 33.3999 80.1171C27.0633 80.6461 20.7462 78.8907 15.5722 75.1633L13.8333 73.9105V62.6778C15.3612 61.319 17.3296 60.5716 19.3667 60.5768ZM11.0667 59.2808V77.419H8.3V59.2808H11.0667Z" fill="#FF942A"/>
</svg>
